<?xml version="1.0" encoding="utf-8"?><!-- Uploaded to: SVG Repo, www.svgrepo.com, Generator: SVG Repo Mixer Tools -->
<svg width="800px" height="800px" viewBox="-0.5 0 13 13" xmlns="http://www.w3.org/2000/svg">
  <path id="Path_2" data-name="Path 2" d="M106.974,837h-12l2-11.031h1.989a1.98,1.98,0,0,1,3.96,0h2.051Zm-6-12.011c-1.042-.01-1.04.338-1.04.98h2.049C101.983,825.367,102.013,825,100.974,824.989ZM102.925,827v.994h-.943V827H99.933v.994h-.974V827H97.848l-1.75,9h9.719l-1.75-9ZM101,824c-.021,0-.041.005-.062.006s-.041-.006-.063-.006Z" transform="translate(-94.974 -824)" fill="#444"/>
</svg>